# xmcd CD database file
#
# Track frame offsets:
#	150
#	33970
#	72823
#	101253
#	144174
#	176948
#	212628
#	250848
#
# Disc length: 4294 seconds
#
# Revision: 0
# Processed by: cddbd v1.5.2PL0 Copyright (c) Steve Scherf et al.
# Submitted via: CDex 1.51
#
DISCID=6710c408
DTITLE=James Spaulding - Down with it
DYEAR=2006
DGENRE=Jazz
TTITLE0=I mean you
TTITLE1=Soul station
TTITLE2=Down with it
TTITLE3=In a sentimental mood
TTITLE4=Little Niles
TTITLE5=Oracle 2
TTITLE6=Recordame
TTITLE7=Hurry home
EXTD=YEAR: 2006
EXTT0=
EXTT1=
EXTT2=
EXTT3=
EXTT4=
EXTT5=
EXTT6=
EXTT7=
PLAYORDER=
